PathFileType	4	(X/Y/Z)	Kaydara	
DataRate	CameraRate	NumFrames	NumMarkers	Units	OrigDataRate	OrigDataStartFrame	OrigNumFrames	
60.00	60.00	4	74	mm	60.00	698	134	
Frame#	Time	Z_lasi			Z_rasi			Z_rpsi			Z_lpsi			Z_fneck			Z_bneck			Z_fhead			Z_lhead			Z_rshld			Z_relbtop			Z_relbext			Z_relblow			Z_rwrext			Z_rwrtop			Z_rwrlow			Z_lshld			Z_lelbext			Z_lelblow			Z_lelbtop			Z_lwrext			Z_lwrtop			Z_lwrlow			Z_rtopleg			Z_rkneefr			Z_rkneebk			Z_rkneeis			Z_lkneefr			Z_lknssbk			Z_lkneeis			Z_rankfr			Z_rankis			Z_rankbk			Z_lankfr			Z_lankbk			Z_lankis			Z_rhead			Z_ltopleg			N_rpsi			N_lpsi			N_fneck			N_bneck			N_fhead			N_rhead			N_lhead			N_rshld			N_relbtop			N_relbext			N_relblow			N_rwrext			N_rwrtop			N_rwrlow			N_lshld			N_lelbext			N_lelblow			N_lelbtop			N_lwrext			N_lwrtop			N_lwrlow			N_rtopleg			N_ltopleg			N_rkneefr			N_rkneebk			N_rkneeis			N_lkneefr			N_lknssbk			N_lkneeis			N_rankfr			N_rankis			N_rankbk			N_lankfr			N_lankbk			N_lankis			N_lasi			N_rasi			
		X1	Y1	Z1	X2	Y2	Z2	X3	Y3	Z3	X4	Y4	Z4	X5	Y5	Z5	X6	Y6	Z6	X7	Y7	Z7	X8	Y8	Z8	X9	Y9	Z9	X10	Y10	Z10	X11	Y11	Z11	X12	Y12	Z12	X13	Y13	Z13	X14	Y14	Z14	X15	Y15	Z15	X16	Y16	Z16	X17	Y17	Z17	X18	Y18	Z18	X19	Y19	Z19	X20	Y20	Z20	X21	Y21	Z21	X22	Y22	Z22	X23	Y23	Z23	X24	Y24	Z24	X25	Y25	Z25	X26	Y26	Z26	X27	Y27	Z27	X28	Y28	Z28	X29	Y29	Z29	X30	Y30	Z30	X31	Y31	Z31	X32	Y32	Z32	X33	Y33	Z33	X34	Y34	Z34	X35	Y35	Z35	X36	Y36	Z36	X37	Y37	Z37	X38	Y38	Z38	X39	Y39	Z39	X40	Y40	Z40	X41	Y41	Z41	X42	Y42	Z42	X43	Y43	Z43	X44	Y44	Z44	X45	Y45	Z45	X46	Y46	Z46	X47	Y47	Z47	X48	Y48	Z48	X49	Y49	Z49	X50	Y50	Z50	X51	Y51	Z51	X52	Y52	Z52	X53	Y53	Z53	X54	Y54	Z54	X55	Y55	Z55	X56	Y56	Z56	X57	Y57	Z57	X58	Y58	Z58	X59	Y59	Z59	X60	Y60	Z60	X61	Y61	Z61	X62	Y62	Z62	X63	Y63	Z63	X64	Y64	Z64	X65	Y65	Z65	X66	Y66	Z66	X67	Y67	Z67	X68	Y68	Z68	X69	Y69	Z69	X70	Y70	Z70	X71	Y71	Z71	X72	Y72	Z72	X73	Y73	Z73	X74	Y74	Z74	

68	11.617	-1016.71036	965.50400	558.06629	-904.70596	997.13173	766.27007	-1090.36842	1055.88806	823.07320	-1180.12794	1034.98459	651.34819	-931.63086	1433.69522	553.16017	-1019.98489	1504.02496	609.27177	-826.71158	1600.16174	519.03107	-973.05031	1619.15771	644.21890	-843.94142	1400.65170	762.54066	-744.32114	1152.39586	771.67915	-792.34589	1096.69701	782.03270	-772.25159	1134.52744	702.13470	-609.67506	991.19278	600.17426	-578.25256	1022.27303	607.10064	-592.60761	1053.29185	576.33606	-1121.20094	1378.25531	454.25682	-1137.17163	1066.45096	510.19562	-1138.92288	1091.17981	420.32612	-1199.91249	1063.71216	469.75697	-1111.62415	863.36807	397.01736	-1079.63234	882.54295	376.44279	-1051.11900	881.42807	412.24644	-943.08495	899.95613	868.16261	-814.69666	441.07330	788.81180	-867.35764	484.24843	850.21400	-893.46901	475.12630	736.78543	-966.93237	411.91387	539.70848	-1048.98514	431.69090	532.71442	-997.08664	437.45090	642.70248	-975.69397	219.12968	790.10941	-1041.53320	250.53272	755.55557	-1039.22668	241.37320	826.77681	-1040.39444	157.63087	570.30373	-1033.89664	157.95947	636.14216	-968.37708	167.34137	604.89197	-1012.67105	1605.47699	522.49977	-1142.21634	889.54628	557.97466	-64.61814	1057.80258	183.60947	80.04576	1093.98605	375.44380	-279.91394	1451.09100	342.28725	-206.55148	1538.40668	258.86221	-442.14241	1640.26001	285.05024	-289.67800	1632.86392	201.91496	-297.35737	1672.60666	355.17509	-331.30394	1371.43616	150.00465	-366.74774	1068.80020	212.96051	-303.91468	1075.65186	265.16348	-391.80386	1115.88234	267.76358	-483.15964	982.50183	443.06511	-520.04742	1018.37936	433.31940	-504.12426	1056.52687	453.80421	-69.59219	1525.92773	473.24730	115.68187	1244.31480	496.31306	49.95923	1304.41574	457.13993	66.79675	1287.68906	567.98920	-147.78318	1204.54323	540.40089	-158.31386	1255.29922	553.41347	-154.46655	1270.90477	508.26191	-192.31953	886.13937	187.53109	37.91913	915.95642	526.19701	-253.44702	458.16208	287.42664	-159.08816	485.93769	217.33316	-143.68986	456.56822	327.99358	-73.89607	445.63217	516.29925	-25.39971	464.85878	421.67500	25.25003	485.69916	529.00440	-228.73817	156.26599	258.02649	-163.37086	152.99100	287.28687	-181.86350	150.97588	212.82253	26.38318	138.93799	518.78777	68.74109	148.24796	435.10265	-2.76384	142.13389	454.29146	-79.54990	1021.91544	511.52351	-237.21724	985.15213	354.59988 
69	11.633	-1015.10132	965.80795	559.86206	-903.13690	998.09494	768.23708	-1089.23279	1056.07140	824.92348	-1178.42522	1034.80789	653.09006	-931.96259	1434.34433	555.25387	-1019.98283	1504.30283	611.69052	-826.96045	1600.62149	521.02200	-972.35565	1619.79172	646.67046	-842.71561	1401.71646	762.94075	-740.64919	1154.16794	769.54903	-788.75328	1097.97134	780.27679	-769.21974	1136.67114	700.05478	-607.07798	995.40009	595.48214	-575.53368	1026.15494	601.87447	-590.22560	1057.41043	571.56586	-1121.43456	1378.79410	456.80065	-1137.23854	1066.67885	511.10672	-1138.72307	1091.92314	421.33602	-1199.94446	1064.13254	470.42736	-1111.34674	864.08188	397.13638	-1079.41429	883.36769	376.81259	-1051.03424	882.15752	412.68188	-941.17302	901.10985	870.30861	-811.94565	442.20043	793.39302	-863.95264	485.86784	854.64020	-891.79199	475.70969	742.36900	-966.00960	412.03987	540.94494	-1048.24287	432.18391	534.07803	-996.11542	437.42851	644.14528	-974.06578	220.34485	799.03526	-1040.11948	251.69983	765.39169	-1036.67786	243.22748	836.43845	-1040.02136	157.82530	570.67547	-1033.41454	157.85916	636.37249	-968.00537	167.17541	605.42690	-1013.26744	1606.29318	525.38498	-1142.21634	889.54628	557.97466	-68.99023	1058.49503	179.61641	76.67051	1094.77798	370.64602	-286.85389	1449.38477	339.93168	-213.35529	1538.30948	257.86741	-450.13092	1638.60123	281.41684	-295.07429	1632.32147	201.72949	-306.03725	1670.14359	355.39135	-336.16188	1369.48227	146.77737	-365.91869	1066.32889	205.04229	-303.86055	1073.18474	257.42685	-392.69314	1113.14384	259.86746	-482.59239	983.91602	437.07813	-519.23115	1020.28282	426.77937	-502.89879	1058.40286	446.58581	-76.63066	1525.75897	471.81145	112.15649	1245.52849	492.40383	46.41535	1305.22842	453.32771	63.23437	1288.10059	564.27399	-150.84861	1203.48701	537.20905	-161.63784	1254.03168	550.75710	-158.61118	1270.08537	505.69153	-195.99661	886.03149	184.30092	36.77812	916.34018	521.53053	-254.88157	457.94212	285.66145	-161.01965	485.96832	215.17857	-145.14808	457.03373	326.10962	-74.54460	445.93441	514.62196	-26.97510	465.01656	419.51916	24.85876	486.38798	526.12350	-229.04806	155.89239	257.74807	-163.58248	153.25701	286.77469	-182.39784	150.72319	212.33202	25.94277	139.41566	517.81971	67.33932	148.36575	433.55186	-3.99120	142.24545	453.69568	-81.36251	1021.59378	507.78790	-240.13977	985.17067	351.77944 
70	11.650	-1013.52158	965.95993	562.00245	-901.45821	998.79196	770.15945	-1087.74521	1056.21071	827.28020	-1176.73172	1034.89479	655.41725	-932.18254	1435.31174	557.45686	-1020.19920	1504.84375	614.73743	-827.81120	1602.05215	523.32413	-972.34985	1620.40054	650.07263	-841.54427	1402.52899	763.45917	-736.72371	1156.19789	767.80487	-784.04892	1099.60251	778.66234	-765.72746	1138.77167	698.19855	-604.94564	998.16010	591.19648	-573.07232	1028.72017	597.55245	-587.89783	1060.08385	567.30793	-1121.97289	1379.56161	460.06752	-1137.22786	1067.09473	512.65129	-1138.40286	1092.73582	422.91630	-1199.64905	1064.72916	471.82186	-1111.49513	864.98428	397.57706	-1079.36325	884.31908	377.28085	-1050.85991	882.88895	412.95799	-938.95317	901.83716	872.62039	-810.77011	442.52548	797.79388	-861.97655	486.61354	859.05746	-891.53496	475.37956	747.95166	-965.68878	412.15164	542.56084	-1047.72705	432.46487	535.97355	-995.88150	437.33387	646.22322	-971.48621	220.36903	807.72888	-1038.44826	250.70566	774.87564	-1034.19609	243.13635	845.74936	-1039.80499	157.97574	571.21040	-1033.24875	157.68531	636.93485	-967.81006	167.03394	605.91320	-1013.81493	1607.36282	528.94833	-1142.21634	889.54628	557.97466	-73.09262	1059.07722	175.76454	73.47244	1095.49706	366.03516	-293.34129	1447.84592	337.16423	-219.57554	1538.23471	256.77114	-456.68507	1637.61154	278.37776	-299.78689	1631.90826	201.51531	-313.45266	1668.01468	355.07748	-340.62687	1368.30627	143.74898	-366.02562	1064.93507	198.31629	-304.31423	1072.28699	251.88604	-392.59472	1110.41824	253.57889	-482.14264	984.18320	431.44863	-518.20484	1021.02722	421.23188	-501.42052	1058.87337	440.70812	-83.65353	1524.95743	470.48660	108.73976	1246.63330	488.47267	42.79001	1306.19537	450.56076	59.40042	1288.92960	562.67124	-153.88356	1201.64413	534.15375	-164.97631	1251.85043	548.19637	-161.89896	1268.34129	503.34507	-199.89513	886.02570	181.24290	35.64352	916.70692	516.93596	-256.00355	457.79861	284.15972	-162.89593	485.77168	213.40878	-146.33838	457.41016	324.34345	-74.90910	446.15349	513.11523	-28.52554	465.04662	417.42783	24.62169	487.09648	523.31917	-229.34761	155.73771	257.33688	-163.68774	153.47252	286.26080	-182.64744	150.54580	211.77477	25.52695	140.03309	516.75018	65.85527	148.40449	431.93783	-4.94594	142.48849	452.64332	-83.08612	1021.27625	504.27372	-243.15374	984.77226	349.94091 
71	11.667	-1012.14188	966.02669	564.49364	-899.54468	999.29596	772.47574	-1085.72670	1056.34743	830.14786	-1174.97948	1035.16502	658.41927	-932.68173	1436.53534	560.21301	-1020.36835	1505.38879	618.49407	-829.20761	1603.73123	525.95623	-972.45720	1621.16302	653.86452	-839.81331	1403.80188	765.14656	-732.79976	1158.13828	765.86205	-779.86160	1101.25595	777.83218	-762.56935	1140.45815	697.19223	-603.52520	998.74504	588.63373	-571.17424	1029.30908	594.40712	-586.39374	1060.24887	564.02626	-1122.78015	1380.37842	464.03194	-1136.25023	1067.52464	514.58290	-1138.12256	1093.77197	425.09277	-1199.10866	1065.49606	474.14875	-1111.77673	866.02684	398.08598	-1079.68727	885.39772	377.85069	-1051.19324	883.69774	413.64269	-936.81213	902.24991	875.12192	-810.82932	441.87649	802.25624	-861.60561	486.61541	863.27347	-892.27455	473.81443	753.29819	-965.80750	412.27402	544.60327	-1047.84531	432.76924	538.32264	-994.72961	436.76708	647.73666	-968.84293	218.63173	818.15704	-1036.08116	247.45434	784.21860	-1032.32750	241.67084	855.40298	-1039.80637	158.06231	571.82350	-1033.23532	157.23734	637.55383	-967.69913	167.05805	606.43391	-1015.15106	1608.58688	533.42926	-1142.21634	889.54628	557.97466	-76.79709	1059.61136	172.12576	70.39904	1096.40701	361.79192	-299.30838	1446.54800	334.71348	-225.01675	1538.14056	255.51857	-462.19494	1637.14630	275.28341	-304.09800	1631.87027	200.99874	-319.76221	1666.44440	354.81102	-344.69528	1367.76443	140.97488	-367.20379	1064.39598	193.73581	-305.05245	1071.61819	247.49691	-393.33675	1109.27940	249.51855	-481.84700	983.03963	427.10251	-517.95593	1019.74533	416.96396	-501.24886	1057.56882	436.40640	-89.85191	1523.56613	469.26865	105.11600	1247.57042	485.12596	39.16745	1306.23322	446.60484	55.77906	1288.06824	558.10616	-156.60169	1199.11156	530.93788	-168.21144	1248.96118	545.55378	-165.68878	1266.00052	500.91724	-203.67283	886.06476	178.75135	34.51963	917.04559	512.77870	-256.94111	457.58175	282.74408	-164.11686	485.73677	211.36724	-147.05927	457.82917	322.39216	-75.14144	446.67198	511.62930	-29.71226	465.10941	415.03620	24.33132	487.71053	520.32116	-229.51458	155.67225	256.95059	-163.72723	153.64122	285.95627	-182.92992	150.31896	211.32689	25.15429	140.76797	515.94200	64.67422	148.58200	430.04181	-6.18097	142.54176	451.99448	-85.14652	1021.01326	500.93174	-245.57409	984.38171	346.63338 
